<mxfile host="app.diagrams.net" agent="Mozilla/5.0 (Windows NT 10.0; Win64; x64) AppleWebKit/537.36 (KHTML, like Gecko) Chrome/129.0.0.0 Safari/537.36 Edg/129.0.0.0" version="24.7.17">
  <diagram name="Page-1" id="2PUK4TW7vK9RXFbLaBG-">
    <mxGraphModel dx="2827" dy="-318" grid="1" gridSize="10" guides="1" tooltips="1" connect="1" arrows="1" fold="1" page="1" pageScale="1" pageWidth="850" pageHeight="1100" math="0" shadow="0">
      <root>
        <mxCell id="0" />
        <mxCell id="1" parent="0" />
        <mxCell id="ZlgfjLk_ET3c-FULecp4-29" value="Select a set&lt;div style=&quot;font-size: 16px;&quot;&gt;of features&lt;/div&gt;" style="text;html=1;align=center;verticalAlign=middle;resizable=0;points=[];autosize=1;strokeColor=none;fillColor=none;fontSize=16;" vertex="1" parent="1">
          <mxGeometry x="230" y="1700.0000000000002" width="110" height="50" as="geometry" />
        </mxCell>
        <mxCell id="ZlgfjLk_ET3c-FULecp4-12" value="" style="rounded=0;whiteSpace=wrap;html=1;fillColor=none;strokeColor=#0066CC;fontSize=14;" vertex="1" parent="1">
          <mxGeometry x="-10" y="1630" width="180" height="190" as="geometry" />
        </mxCell>
        <mxCell id="ZlgfjLk_ET3c-FULecp4-2" value="" style="html=1;verticalLabelPosition=bottom;align=center;labelBackgroundColor=#ffffff;verticalAlign=top;strokeWidth=2;strokeColor=#000099;shadow=0;dashed=0;shape=mxgraph.ios7.icons.data;fillColor=none;fontSize=14;" vertex="1" parent="1">
          <mxGeometry x="2" y="1650" width="40" height="50" as="geometry" />
        </mxCell>
        <mxCell id="ZlgfjLk_ET3c-FULecp4-6" value="" style="html=1;verticalLabelPosition=bottom;align=center;labelBackgroundColor=#ffffff;verticalAlign=top;strokeWidth=2;strokeColor=#000099;shadow=0;dashed=0;shape=mxgraph.ios7.icons.data;fillColor=none;fontSize=14;" vertex="1" parent="1">
          <mxGeometry x="118" y="1650" width="40" height="50" as="geometry" />
        </mxCell>
        <mxCell id="ZlgfjLk_ET3c-FULecp4-7" value="DBMS&lt;br style=&quot;font-size: 14px;&quot;&gt;Instances" style="text;html=1;align=center;verticalAlign=middle;resizable=0;points=[];autosize=1;strokeColor=none;fillColor=none;fontSize=14;" vertex="1" parent="1">
          <mxGeometry x="40" y="1649" width="80" height="50" as="geometry" />
        </mxCell>
        <mxCell id="ZlgfjLk_ET3c-FULecp4-8" value="VM" style="rounded=0;whiteSpace=wrap;html=1;strokeColor=#000099;fillColor=#0066CC;fontColor=#FFFFFF;fontSize=14;" vertex="1" parent="1">
          <mxGeometry y="1710" width="70" height="30" as="geometry" />
        </mxCell>
        <mxCell id="ZlgfjLk_ET3c-FULecp4-9" value="VM" style="rounded=0;whiteSpace=wrap;html=1;strokeColor=#000099;fillColor=#0066CC;fontColor=#FFFFFF;fontSize=14;" vertex="1" parent="1">
          <mxGeometry x="80" y="1710" width="80" height="30" as="geometry" />
        </mxCell>
        <mxCell id="ZlgfjLk_ET3c-FULecp4-10" value="&lt;font style=&quot;font-size: 14px;&quot;&gt;Cluster&lt;/font&gt;" style="rounded=0;whiteSpace=wrap;html=1;strokeColor=#000099;fillColor=#0066CC;fontColor=#FFFFFF;fontSize=14;" vertex="1" parent="1">
          <mxGeometry y="1750" width="160" height="30" as="geometry" />
        </mxCell>
        <mxCell id="ZlgfjLk_ET3c-FULecp4-11" value="Components of&amp;nbsp;&lt;div&gt;workload w&lt;sub style=&quot;font-size: 14px;&quot;&gt;3&lt;/sub&gt;&lt;/div&gt;" style="text;html=1;align=center;verticalAlign=middle;resizable=0;points=[];autosize=1;strokeColor=none;fillColor=none;fontSize=14;" vertex="1" parent="1">
          <mxGeometry x="15" y="1777" width="120" height="50" as="geometry" />
        </mxCell>
        <mxCell id="ZlgfjLk_ET3c-FULecp4-13" value="Telemetry Store" style="rounded=0;whiteSpace=wrap;html=1;fontSize=18;fillColor=#fa6800;strokeColor=#C73500;fontColor=#FFFFFF;rotation=-90;" vertex="1" parent="1">
          <mxGeometry x="140.75" y="1709.25" width="148.75" height="30.25" as="geometry" />
        </mxCell>
        <mxCell id="ZlgfjLk_ET3c-FULecp4-14" value="" style="shape=actor;whiteSpace=wrap;html=1;fontSize=14;" vertex="1" parent="1">
          <mxGeometry x="-91" y="1650" width="30" height="40" as="geometry" />
        </mxCell>
        <mxCell id="ZlgfjLk_ET3c-FULecp4-15" value="" style="shape=actor;whiteSpace=wrap;html=1;fontSize=14;" vertex="1" parent="1">
          <mxGeometry x="-71" y="1688" width="30" height="40" as="geometry" />
        </mxCell>
        <mxCell id="ZlgfjLk_ET3c-FULecp4-16" value="" style="shape=actor;whiteSpace=wrap;html=1;fontSize=14;" vertex="1" parent="1">
          <mxGeometry x="-91" y="1739.5" width="30" height="40" as="geometry" />
        </mxCell>
        <mxCell id="ZlgfjLk_ET3c-FULecp4-17" value="" style="endArrow=classic;html=1;rounded=0;entryX=0;entryY=0.25;entryDx=0;entryDy=0;exitX=0.9;exitY=0.5;exitDx=0;exitDy=0;exitPerimeter=0;fontSize=14;" edge="1" parent="1" source="ZlgfjLk_ET3c-FULecp4-14">
          <mxGeometry width="50" height="50" relative="1" as="geometry">
            <mxPoint x="49" y="1740" as="sourcePoint" />
            <mxPoint x="-11" y="1682.5" as="targetPoint" />
          </mxGeometry>
        </mxCell>
        <mxCell id="ZlgfjLk_ET3c-FULecp4-18" value="q&lt;sub style=&quot;font-size: 14px;&quot;&gt;1&lt;/sub&gt;" style="text;html=1;align=center;verticalAlign=middle;resizable=0;points=[];autosize=1;strokeColor=none;fillColor=none;fontSize=14;" vertex="1" parent="1">
          <mxGeometry x="-61" y="1648.5" width="40" height="30" as="geometry" />
        </mxCell>
        <mxCell id="ZlgfjLk_ET3c-FULecp4-19" value="" style="endArrow=classic;html=1;rounded=0;entryX=0;entryY=0.395;entryDx=0;entryDy=0;exitX=0.9;exitY=0.5;exitDx=0;exitDy=0;exitPerimeter=0;entryPerimeter=0;fontSize=14;" edge="1" parent="1" source="ZlgfjLk_ET3c-FULecp4-15">
          <mxGeometry width="50" height="50" relative="1" as="geometry">
            <mxPoint x="-38" y="1704" as="sourcePoint" />
            <mxPoint x="-11" y="1707.15" as="targetPoint" />
          </mxGeometry>
        </mxCell>
        <mxCell id="ZlgfjLk_ET3c-FULecp4-20" value="q&lt;span style=&quot;font-size: 14px;&quot;&gt;&lt;sub style=&quot;font-size: 14px;&quot;&gt;2&lt;/sub&gt;&lt;/span&gt;" style="text;html=1;align=center;verticalAlign=middle;resizable=0;points=[];autosize=1;strokeColor=none;fillColor=none;fontSize=14;" vertex="1" parent="1">
          <mxGeometry x="-51" y="1680" width="40" height="30" as="geometry" />
        </mxCell>
        <mxCell id="ZlgfjLk_ET3c-FULecp4-21" value="" style="endArrow=classic;html=1;rounded=0;exitX=1;exitY=0.75;exitDx=0;exitDy=0;entryX=-0.013;entryY=0.67;entryDx=0;entryDy=0;fontSize=14;entryPerimeter=0;" edge="1" parent="1" source="ZlgfjLk_ET3c-FULecp4-16">
          <mxGeometry width="50" height="50" relative="1" as="geometry">
            <mxPoint x="49" y="1740" as="sourcePoint" />
            <mxPoint x="-13.340000000000146" y="1753.9" as="targetPoint" />
          </mxGeometry>
        </mxCell>
        <mxCell id="ZlgfjLk_ET3c-FULecp4-22" value="q&lt;span style=&quot;font-size: 14px;&quot;&gt;&lt;sub style=&quot;font-size: 14px;&quot;&gt;3&lt;/sub&gt;&lt;/span&gt;" style="text;html=1;align=center;verticalAlign=middle;resizable=0;points=[];autosize=1;strokeColor=none;fillColor=none;fontSize=14;" vertex="1" parent="1">
          <mxGeometry x="-51" y="1731" width="40" height="30" as="geometry" />
        </mxCell>
        <mxCell id="ZlgfjLk_ET3c-FULecp4-23" value="" style="endArrow=classic;html=1;rounded=0;entryX=0.75;entryY=0;entryDx=0;entryDy=0;exitX=1.004;exitY=0.41;exitDx=0;exitDy=0;exitPerimeter=0;strokeColor=#0066CC;dashed=1;strokeWidth=2;" edge="1" parent="1" source="ZlgfjLk_ET3c-FULecp4-6" target="ZlgfjLk_ET3c-FULecp4-13">
          <mxGeometry width="50" height="50" relative="1" as="geometry">
            <mxPoint x="110" y="1760" as="sourcePoint" />
            <mxPoint x="160" y="1710" as="targetPoint" />
          </mxGeometry>
        </mxCell>
        <mxCell id="ZlgfjLk_ET3c-FULecp4-25" value="" style="endArrow=classic;html=1;rounded=0;entryX=0.5;entryY=0;entryDx=0;entryDy=0;strokeColor=#0066CC;dashed=1;exitX=1;exitY=0.5;exitDx=0;exitDy=0;strokeWidth=2;" edge="1" parent="1" source="ZlgfjLk_ET3c-FULecp4-9" target="ZlgfjLk_ET3c-FULecp4-13">
          <mxGeometry width="50" height="50" relative="1" as="geometry">
            <mxPoint x="160" y="1690" as="sourcePoint" />
            <mxPoint x="210" y="1697" as="targetPoint" />
          </mxGeometry>
        </mxCell>
        <mxCell id="ZlgfjLk_ET3c-FULecp4-26" value="" style="endArrow=classic;html=1;rounded=0;entryX=0.32;entryY=-0.011;entryDx=0;entryDy=0;strokeColor=#0066CC;dashed=1;exitX=1;exitY=0.5;exitDx=0;exitDy=0;entryPerimeter=0;strokeWidth=2;" edge="1" parent="1" source="ZlgfjLk_ET3c-FULecp4-10" target="ZlgfjLk_ET3c-FULecp4-13">
          <mxGeometry width="50" height="50" relative="1" as="geometry">
            <mxPoint x="170" y="1735" as="sourcePoint" />
            <mxPoint x="210" y="1734" as="targetPoint" />
          </mxGeometry>
        </mxCell>
        <mxCell id="ZlgfjLk_ET3c-FULecp4-27" value="&lt;font style=&quot;font-size: 18px;&quot;&gt;Feature&lt;/font&gt;&lt;div style=&quot;font-size: 18px;&quot;&gt;&lt;font style=&quot;font-size: 18px;&quot;&gt;Selection&lt;/font&gt;&lt;/div&gt;" style="rounded=1;whiteSpace=wrap;html=1;fillColor=#60a917;fontColor=#ffffff;strokeColor=#2D7600;" vertex="1" parent="1">
          <mxGeometry x="337" y="1680" width="100" height="90" as="geometry" />
        </mxCell>
        <mxCell id="ZlgfjLk_ET3c-FULecp4-28" value="" style="endArrow=classic;html=1;rounded=0;exitX=0;exitY=0.5;exitDx=0;exitDy=0;entryX=0.5;entryY=1;entryDx=0;entryDy=0;fillColor=#60a917;strokeColor=#2D7600;endSize=6;strokeWidth=2;fontSize=16;" edge="1" parent="1" source="ZlgfjLk_ET3c-FULecp4-27" target="ZlgfjLk_ET3c-FULecp4-13">
          <mxGeometry width="50" height="50" relative="1" as="geometry">
            <mxPoint x="210" y="1750" as="sourcePoint" />
            <mxPoint x="260" y="1700" as="targetPoint" />
          </mxGeometry>
        </mxCell>
        <mxCell id="ZlgfjLk_ET3c-FULecp4-31" value="1" style="ellipse;whiteSpace=wrap;html=1;aspect=fixed;strokeWidth=2;fontFamily=Tahoma;spacingBottom=4;spacingRight=2;strokeColor=#005700;fillColor=none;" vertex="1" parent="1">
          <mxGeometry x="340" y="1654" width="19" height="19" as="geometry" />
        </mxCell>
        <mxCell id="ZlgfjLk_ET3c-FULecp4-49" value="" style="group;fontSize=16;" vertex="1" connectable="0" parent="1">
          <mxGeometry x="466" y="1650" width="64" height="33" as="geometry" />
        </mxCell>
        <mxCell id="ZlgfjLk_ET3c-FULecp4-33" value="..." style="text;html=1;align=center;verticalAlign=middle;resizable=0;points=[];autosize=1;strokeColor=none;fillColor=none;" vertex="1" parent="ZlgfjLk_ET3c-FULecp4-49">
          <mxGeometry x="34" width="30" height="30" as="geometry" />
        </mxCell>
        <mxCell id="ZlgfjLk_ET3c-FULecp4-32" value="" style="strokeWidth=2;html=1;shape=mxgraph.flowchart.annotation_1;align=left;pointerEvents=1;fillColor=#FCAB0B;strokeColor=#FCAB0B;fontColor=#000000;" vertex="1" parent="ZlgfjLk_ET3c-FULecp4-49">
          <mxGeometry x="35" y="8" width="10" height="20" as="geometry" />
        </mxCell>
        <mxCell id="ZlgfjLk_ET3c-FULecp4-34" value="" style="strokeWidth=2;html=1;shape=mxgraph.flowchart.annotation_1;align=left;pointerEvents=1;rotation=-180;fillColor=#FCAB0B;strokeColor=#FCAB0B;fontColor=#000000;" vertex="1" parent="ZlgfjLk_ET3c-FULecp4-49">
          <mxGeometry x="54" y="8" width="10" height="20" as="geometry" />
        </mxCell>
        <mxCell id="ZlgfjLk_ET3c-FULecp4-40" value="w&lt;sub&gt;1&lt;/sub&gt;" style="text;html=1;align=center;verticalAlign=middle;resizable=0;points=[];autosize=1;strokeColor=none;fillColor=none;" vertex="1" parent="ZlgfjLk_ET3c-FULecp4-49">
          <mxGeometry y="3" width="40" height="30" as="geometry" />
        </mxCell>
        <mxCell id="ZlgfjLk_ET3c-FULecp4-50" value="" style="group;fontSize=16;" vertex="1" connectable="0" parent="1">
          <mxGeometry x="466" y="1690" width="64" height="33" as="geometry" />
        </mxCell>
        <mxCell id="ZlgfjLk_ET3c-FULecp4-51" value="..." style="text;html=1;align=center;verticalAlign=middle;resizable=0;points=[];autosize=1;strokeColor=none;fillColor=none;" vertex="1" parent="ZlgfjLk_ET3c-FULecp4-50">
          <mxGeometry x="34" width="30" height="30" as="geometry" />
        </mxCell>
        <mxCell id="ZlgfjLk_ET3c-FULecp4-52" value="" style="strokeWidth=2;html=1;shape=mxgraph.flowchart.annotation_1;align=left;pointerEvents=1;fillColor=#FCAB0B;strokeColor=#FCAB0B;fontColor=#000000;" vertex="1" parent="ZlgfjLk_ET3c-FULecp4-50">
          <mxGeometry x="35" y="8" width="10" height="20" as="geometry" />
        </mxCell>
        <mxCell id="ZlgfjLk_ET3c-FULecp4-53" value="" style="strokeWidth=2;html=1;shape=mxgraph.flowchart.annotation_1;align=left;pointerEvents=1;rotation=-180;fillColor=#FCAB0B;strokeColor=#FCAB0B;fontColor=#000000;" vertex="1" parent="ZlgfjLk_ET3c-FULecp4-50">
          <mxGeometry x="54" y="8" width="10" height="20" as="geometry" />
        </mxCell>
        <mxCell id="ZlgfjLk_ET3c-FULecp4-54" value="w&lt;sub&gt;2&lt;/sub&gt;" style="text;html=1;align=center;verticalAlign=middle;resizable=0;points=[];autosize=1;strokeColor=none;fillColor=none;" vertex="1" parent="ZlgfjLk_ET3c-FULecp4-50">
          <mxGeometry y="3" width="40" height="30" as="geometry" />
        </mxCell>
        <mxCell id="ZlgfjLk_ET3c-FULecp4-55" value="" style="group;fontSize=16;" vertex="1" connectable="0" parent="1">
          <mxGeometry x="466" y="1728" width="64" height="33" as="geometry" />
        </mxCell>
        <mxCell id="ZlgfjLk_ET3c-FULecp4-56" value="..." style="text;html=1;align=center;verticalAlign=middle;resizable=0;points=[];autosize=1;strokeColor=none;fillColor=none;" vertex="1" parent="ZlgfjLk_ET3c-FULecp4-55">
          <mxGeometry x="34" width="30" height="30" as="geometry" />
        </mxCell>
        <mxCell id="ZlgfjLk_ET3c-FULecp4-57" value="" style="strokeWidth=2;html=1;shape=mxgraph.flowchart.annotation_1;align=left;pointerEvents=1;fillColor=#60a917;strokeColor=#60a917;fontColor=#ffffff;" vertex="1" parent="ZlgfjLk_ET3c-FULecp4-55">
          <mxGeometry x="35" y="8" width="10" height="20" as="geometry" />
        </mxCell>
        <mxCell id="ZlgfjLk_ET3c-FULecp4-58" value="" style="strokeWidth=2;html=1;shape=mxgraph.flowchart.annotation_1;align=left;pointerEvents=1;rotation=-180;fillColor=#60a917;strokeColor=#60a917;fontColor=#ffffff;" vertex="1" parent="ZlgfjLk_ET3c-FULecp4-55">
          <mxGeometry x="54" y="8" width="10" height="20" as="geometry" />
        </mxCell>
        <mxCell id="ZlgfjLk_ET3c-FULecp4-59" value="w&lt;sub&gt;3&lt;/sub&gt;" style="text;html=1;align=center;verticalAlign=middle;resizable=0;points=[];autosize=1;strokeColor=none;fillColor=none;" vertex="1" parent="ZlgfjLk_ET3c-FULecp4-55">
          <mxGeometry y="3" width="40" height="30" as="geometry" />
        </mxCell>
        <mxCell id="ZlgfjLk_ET3c-FULecp4-60" value="" style="group;fontSize=16;" vertex="1" connectable="0" parent="1">
          <mxGeometry x="466" y="1770" width="64" height="33" as="geometry" />
        </mxCell>
        <mxCell id="ZlgfjLk_ET3c-FULecp4-61" value="..." style="text;html=1;align=center;verticalAlign=middle;resizable=0;points=[];autosize=1;strokeColor=none;fillColor=none;" vertex="1" parent="ZlgfjLk_ET3c-FULecp4-60">
          <mxGeometry x="34" width="30" height="30" as="geometry" />
        </mxCell>
        <mxCell id="ZlgfjLk_ET3c-FULecp4-62" value="" style="strokeWidth=2;html=1;shape=mxgraph.flowchart.annotation_1;align=left;pointerEvents=1;fillColor=#FCAB0B;strokeColor=#FCAB0B;fontColor=#000000;" vertex="1" parent="ZlgfjLk_ET3c-FULecp4-60">
          <mxGeometry x="35" y="8" width="10" height="20" as="geometry" />
        </mxCell>
        <mxCell id="ZlgfjLk_ET3c-FULecp4-63" value="" style="strokeWidth=2;html=1;shape=mxgraph.flowchart.annotation_1;align=left;pointerEvents=1;rotation=-180;fillColor=#FCAB0B;strokeColor=#FCAB0B;fontColor=#000000;" vertex="1" parent="ZlgfjLk_ET3c-FULecp4-60">
          <mxGeometry x="54" y="8" width="10" height="20" as="geometry" />
        </mxCell>
        <mxCell id="ZlgfjLk_ET3c-FULecp4-64" value="w&lt;sub&gt;4&lt;/sub&gt;" style="text;html=1;align=center;verticalAlign=middle;resizable=0;points=[];autosize=1;strokeColor=none;fillColor=none;" vertex="1" parent="ZlgfjLk_ET3c-FULecp4-60">
          <mxGeometry y="3" width="40" height="30" as="geometry" />
        </mxCell>
        <mxCell id="ZlgfjLk_ET3c-FULecp4-65" value="" style="endArrow=classic;html=1;rounded=0;exitX=1;exitY=0.5;exitDx=0;exitDy=0;entryX=0.25;entryY=0.533;entryDx=0;entryDy=0;fillColor=#60a917;strokeColor=#2D7600;endSize=6;strokeWidth=2;entryPerimeter=0;" edge="1" parent="1" source="ZlgfjLk_ET3c-FULecp4-27" target="ZlgfjLk_ET3c-FULecp4-59">
          <mxGeometry width="50" height="50" relative="1" as="geometry">
            <mxPoint x="347" y="1735" as="sourcePoint" />
            <mxPoint x="266" y="1734" as="targetPoint" />
          </mxGeometry>
        </mxCell>
        <mxCell id="ZlgfjLk_ET3c-FULecp4-66" value="Representations of&lt;div style=&quot;font-size: 16px;&quot;&gt;previous workloads&lt;/div&gt;" style="text;html=1;align=center;verticalAlign=middle;resizable=0;points=[];autosize=1;strokeColor=none;fillColor=none;fontSize=16;" vertex="1" parent="1">
          <mxGeometry x="436" y="1600" width="160" height="50" as="geometry" />
        </mxCell>
        <mxCell id="ZlgfjLk_ET3c-FULecp4-67" value="&lt;span style=&quot;font-size: 18px;&quot;&gt;Workload&lt;/span&gt;&lt;div&gt;&lt;span style=&quot;font-size: 18px;&quot;&gt;Similarity&lt;/span&gt;&lt;/div&gt;&lt;div&gt;&lt;span style=&quot;font-size: 18px;&quot;&gt;Computation&lt;/span&gt;&lt;/div&gt;" style="rounded=1;whiteSpace=wrap;html=1;fillColor=#60a917;fontColor=#ffffff;strokeColor=#2D7600;" vertex="1" parent="1">
          <mxGeometry x="586" y="1680" width="120" height="90" as="geometry" />
        </mxCell>
        <mxCell id="ZlgfjLk_ET3c-FULecp4-68" value="" style="endArrow=classic;html=1;rounded=0;exitX=0;exitY=0.5;exitDx=0;exitDy=0;entryX=-0.002;entryY=0.622;entryDx=0;entryDy=0;fillColor=#60a917;strokeColor=#2D7600;endSize=6;strokeWidth=2;exitPerimeter=0;entryPerimeter=0;" edge="1" parent="1" source="ZlgfjLk_ET3c-FULecp4-58" target="ZlgfjLk_ET3c-FULecp4-67">
          <mxGeometry width="50" height="50" relative="1" as="geometry">
            <mxPoint x="447" y="1735" as="sourcePoint" />
            <mxPoint x="486" y="1757" as="targetPoint" />
          </mxGeometry>
        </mxCell>
        <mxCell id="ZlgfjLk_ET3c-FULecp4-69" value="" style="endArrow=classic;html=1;rounded=0;exitX=0.004;exitY=0.878;exitDx=0;exitDy=0;entryX=0;entryY=0.5;entryDx=0;entryDy=0;fillColor=#60a917;strokeColor=#2D7600;endSize=6;strokeWidth=2;entryPerimeter=0;exitPerimeter=0;dashed=1;" edge="1" parent="1" source="ZlgfjLk_ET3c-FULecp4-67" target="ZlgfjLk_ET3c-FULecp4-63">
          <mxGeometry width="50" height="50" relative="1" as="geometry">
            <mxPoint x="530" y="1810" as="sourcePoint" />
            <mxPoint x="586.96" y="1791.04" as="targetPoint" />
          </mxGeometry>
        </mxCell>
        <mxCell id="ZlgfjLk_ET3c-FULecp4-70" value="" style="endArrow=classic;html=1;rounded=0;exitX=0.004;exitY=0.431;exitDx=0;exitDy=0;entryX=0;entryY=0.5;entryDx=0;entryDy=0;fillColor=#60a917;strokeColor=#2D7600;endSize=6;strokeWidth=2;entryPerimeter=0;exitPerimeter=0;dashed=1;" edge="1" parent="1" source="ZlgfjLk_ET3c-FULecp4-67" target="ZlgfjLk_ET3c-FULecp4-53">
          <mxGeometry width="50" height="50" relative="1" as="geometry">
            <mxPoint x="540" y="1786" as="sourcePoint" />
            <mxPoint x="597" y="1767" as="targetPoint" />
          </mxGeometry>
        </mxCell>
        <mxCell id="ZlgfjLk_ET3c-FULecp4-71" value="" style="endArrow=classic;html=1;rounded=0;exitX=0;exitY=0.25;exitDx=0;exitDy=0;entryX=0;entryY=0.5;entryDx=0;entryDy=0;fillColor=#60a917;strokeColor=#2D7600;endSize=6;strokeWidth=2;entryPerimeter=0;dashed=1;" edge="1" parent="1" source="ZlgfjLk_ET3c-FULecp4-67" target="ZlgfjLk_ET3c-FULecp4-34">
          <mxGeometry width="50" height="50" relative="1" as="geometry">
            <mxPoint x="550" y="1796" as="sourcePoint" />
            <mxPoint x="607" y="1777" as="targetPoint" />
          </mxGeometry>
        </mxCell>
        <mxCell id="ZlgfjLk_ET3c-FULecp4-72" value="2" style="ellipse;whiteSpace=wrap;html=1;aspect=fixed;strokeWidth=2;fontFamily=Tahoma;spacingBottom=4;spacingRight=2;strokeColor=#005700;fillColor=none;" vertex="1" parent="1">
          <mxGeometry x="596" y="1654" width="19" height="19" as="geometry" />
        </mxCell>
        <mxCell id="ZlgfjLk_ET3c-FULecp4-73" value="&lt;span style=&quot;font-size: 18px;&quot;&gt;Performance&lt;/span&gt;&lt;div&gt;&lt;span style=&quot;font-size: 18px;&quot;&gt;Scaling&lt;/span&gt;&lt;/div&gt;&lt;div&gt;&lt;span style=&quot;font-size: 18px;&quot;&gt;Prediction&lt;/span&gt;&lt;/div&gt;" style="rounded=1;whiteSpace=wrap;html=1;fillColor=#60a917;fontColor=#ffffff;strokeColor=#2D7600;" vertex="1" parent="1">
          <mxGeometry x="746" y="1680" width="120" height="90" as="geometry" />
        </mxCell>
        <mxCell id="ZlgfjLk_ET3c-FULecp4-74" value="" style="endArrow=classic;html=1;rounded=0;exitX=1;exitY=0.75;exitDx=0;exitDy=0;entryX=0;entryY=0.75;entryDx=0;entryDy=0;fillColor=#60a917;strokeColor=#2D7600;endSize=6;strokeWidth=2;" edge="1" parent="1" source="ZlgfjLk_ET3c-FULecp4-67" target="ZlgfjLk_ET3c-FULecp4-73">
          <mxGeometry width="50" height="50" relative="1" as="geometry">
            <mxPoint x="706" y="1739.5" as="sourcePoint" />
            <mxPoint x="762" y="1729.5" as="targetPoint" />
          </mxGeometry>
        </mxCell>
        <mxCell id="ZlgfjLk_ET3c-FULecp4-76" value="" style="endArrow=classic;html=1;rounded=0;exitX=1;exitY=0.25;exitDx=0;exitDy=0;entryX=0;entryY=0.25;entryDx=0;entryDy=0;fillColor=#60a917;strokeColor=#2D7600;endSize=6;strokeWidth=2;dashed=1;" edge="1" parent="1" source="ZlgfjLk_ET3c-FULecp4-67" target="ZlgfjLk_ET3c-FULecp4-73">
          <mxGeometry width="50" height="50" relative="1" as="geometry">
            <mxPoint x="596" y="1713" as="sourcePoint" />
            <mxPoint x="540" y="1696" as="targetPoint" />
          </mxGeometry>
        </mxCell>
        <mxCell id="ZlgfjLk_ET3c-FULecp4-78" value="3" style="ellipse;whiteSpace=wrap;html=1;aspect=fixed;strokeWidth=2;fontFamily=Tahoma;spacingBottom=4;spacingRight=2;strokeColor=#005700;fillColor=none;" vertex="1" parent="1">
          <mxGeometry x="760" y="1654" width="19" height="19" as="geometry" />
        </mxCell>
        <mxCell id="ZlgfjLk_ET3c-FULecp4-91" value="" style="endArrow=classic;html=1;rounded=0;exitX=1.003;exitY=0.541;exitDx=0;exitDy=0;exitPerimeter=0;strokeColor=#FCAB0B;strokeWidth=3;dashed=1;" edge="1" parent="1" source="ZlgfjLk_ET3c-FULecp4-66" target="ZlgfjLk_ET3c-FULecp4-155">
          <mxGeometry width="50" height="50" relative="1" as="geometry">
            <mxPoint x="620" y="1620" as="sourcePoint" />
            <mxPoint x="820" y="1627" as="targetPoint" />
          </mxGeometry>
        </mxCell>
        <mxCell id="ZlgfjLk_ET3c-FULecp4-92" value="Assets" style="childLayout=tableLayout;recursiveResize=0;strokeColor=#98bf21;fillColor=#A7C942;shadow=0;" vertex="1" parent="1">
          <mxGeometry x="1002" y="1640" width="298" height="160" as="geometry" />
        </mxCell>
        <mxCell id="ZlgfjLk_ET3c-FULecp4-93" style="shape=tableRow;horizontal=0;startSize=0;swimlaneHead=0;swimlaneBody=0;top=0;left=0;bottom=0;right=0;dropTarget=0;collapsible=0;recursiveResize=0;expand=0;fontStyle=0;strokeColor=inherit;fillColor=#ffffff;" vertex="1" parent="ZlgfjLk_ET3c-FULecp4-92">
          <mxGeometry width="298" height="33" as="geometry" />
        </mxCell>
        <mxCell id="ZlgfjLk_ET3c-FULecp4-94" value="Model" style="connectable=0;recursiveResize=0;strokeColor=inherit;fillColor=#60a917;align=center;fontStyle=1;fontColor=#FFFFFF;html=1;" vertex="1" parent="ZlgfjLk_ET3c-FULecp4-93">
          <mxGeometry width="80" height="33" as="geometry">
            <mxRectangle width="80" height="33" as="alternateBounds" />
          </mxGeometry>
        </mxCell>
        <mxCell id="ZlgfjLk_ET3c-FULecp4-95" value="Similarity" style="connectable=0;recursiveResize=0;strokeColor=inherit;fillColor=#60a917;align=center;fontStyle=1;fontColor=#FFFFFF;html=1;" vertex="1" parent="ZlgfjLk_ET3c-FULecp4-93">
          <mxGeometry x="80" width="68" height="33" as="geometry">
            <mxRectangle width="68" height="33" as="alternateBounds" />
          </mxGeometry>
        </mxCell>
        <mxCell id="ZlgfjLk_ET3c-FULecp4-96" value="Hardware Config" style="connectable=0;recursiveResize=0;strokeColor=inherit;fillColor=#60a917;align=center;fontStyle=1;fontColor=#FFFFFF;html=1;" vertex="1" parent="ZlgfjLk_ET3c-FULecp4-93">
          <mxGeometry x="148" width="150" height="33" as="geometry">
            <mxRectangle width="150" height="33" as="alternateBounds" />
          </mxGeometry>
        </mxCell>
        <mxCell id="ZlgfjLk_ET3c-FULecp4-97" value="" style="shape=tableRow;horizontal=0;startSize=0;swimlaneHead=0;swimlaneBody=0;top=0;left=0;bottom=0;right=0;dropTarget=0;collapsible=0;recursiveResize=0;expand=0;fontStyle=0;strokeColor=inherit;fillColor=#ffffff;fontSize=14;" vertex="1" parent="ZlgfjLk_ET3c-FULecp4-92">
          <mxGeometry y="33" width="298" height="32" as="geometry" />
        </mxCell>
        <mxCell id="ZlgfjLk_ET3c-FULecp4-98" value="model-w&lt;sub style=&quot;font-size: 14px;&quot;&gt;1,1&lt;/sub&gt;" style="connectable=0;recursiveResize=0;strokeColor=inherit;fillColor=inherit;align=center;whiteSpace=wrap;html=1;fontSize=14;" vertex="1" parent="ZlgfjLk_ET3c-FULecp4-97">
          <mxGeometry width="80" height="32" as="geometry">
            <mxRectangle width="80" height="32" as="alternateBounds" />
          </mxGeometry>
        </mxCell>
        <mxCell id="ZlgfjLk_ET3c-FULecp4-99" value="0.85" style="connectable=0;recursiveResize=0;strokeColor=inherit;fillColor=inherit;align=center;whiteSpace=wrap;html=1;fontSize=14;" vertex="1" parent="ZlgfjLk_ET3c-FULecp4-97">
          <mxGeometry x="80" width="68" height="32" as="geometry">
            <mxRectangle width="68" height="32" as="alternateBounds" />
          </mxGeometry>
        </mxCell>
        <mxCell id="ZlgfjLk_ET3c-FULecp4-100" value="4vCPUs, 8GB RAM" style="connectable=0;recursiveResize=0;strokeColor=inherit;fillColor=inherit;align=center;whiteSpace=wrap;html=1;fontSize=14;" vertex="1" parent="ZlgfjLk_ET3c-FULecp4-97">
          <mxGeometry x="148" width="150" height="32" as="geometry">
            <mxRectangle width="150" height="32" as="alternateBounds" />
          </mxGeometry>
        </mxCell>
        <mxCell id="ZlgfjLk_ET3c-FULecp4-101" value="" style="shape=tableRow;horizontal=0;startSize=0;swimlaneHead=0;swimlaneBody=0;top=0;left=0;bottom=0;right=0;dropTarget=0;collapsible=0;recursiveResize=0;expand=0;fontStyle=1;strokeColor=inherit;fillColor=#EAF2D3;fontSize=14;" vertex="1" parent="ZlgfjLk_ET3c-FULecp4-92">
          <mxGeometry y="65" width="298" height="31" as="geometry" />
        </mxCell>
        <mxCell id="ZlgfjLk_ET3c-FULecp4-102" value="model-w&lt;sub style=&quot;font-size: 14px;&quot;&gt;1,2&lt;/sub&gt;" style="connectable=0;recursiveResize=0;strokeColor=inherit;fillColor=inherit;whiteSpace=wrap;html=1;fontSize=14;" vertex="1" parent="ZlgfjLk_ET3c-FULecp4-101">
          <mxGeometry width="80" height="31" as="geometry">
            <mxRectangle width="80" height="31" as="alternateBounds" />
          </mxGeometry>
        </mxCell>
        <mxCell id="ZlgfjLk_ET3c-FULecp4-103" value="0.80" style="connectable=0;recursiveResize=0;strokeColor=inherit;fillColor=inherit;whiteSpace=wrap;html=1;fontSize=14;" vertex="1" parent="ZlgfjLk_ET3c-FULecp4-101">
          <mxGeometry x="80" width="68" height="31" as="geometry">
            <mxRectangle width="68" height="31" as="alternateBounds" />
          </mxGeometry>
        </mxCell>
        <mxCell id="ZlgfjLk_ET3c-FULecp4-104" value="8vCPUs, 8GB RAM" style="connectable=0;recursiveResize=0;strokeColor=inherit;fillColor=inherit;whiteSpace=wrap;html=1;fontSize=14;" vertex="1" parent="ZlgfjLk_ET3c-FULecp4-101">
          <mxGeometry x="148" width="150" height="31" as="geometry">
            <mxRectangle width="150" height="31" as="alternateBounds" />
          </mxGeometry>
        </mxCell>
        <mxCell id="ZlgfjLk_ET3c-FULecp4-105" value="" style="shape=tableRow;horizontal=0;startSize=0;swimlaneHead=0;swimlaneBody=0;top=0;left=0;bottom=0;right=0;dropTarget=0;collapsible=0;recursiveResize=0;expand=0;fontStyle=0;strokeColor=inherit;fillColor=#ffffff;fontSize=14;" vertex="1" parent="ZlgfjLk_ET3c-FULecp4-92">
          <mxGeometry y="96" width="298" height="33" as="geometry" />
        </mxCell>
        <mxCell id="ZlgfjLk_ET3c-FULecp4-106" value="model-w&lt;sub style=&quot;font-size: 14px;&quot;&gt;2,1&lt;/sub&gt;" style="connectable=0;recursiveResize=0;strokeColor=inherit;fillColor=inherit;fontStyle=0;align=center;whiteSpace=wrap;html=1;fontSize=14;" vertex="1" parent="ZlgfjLk_ET3c-FULecp4-105">
          <mxGeometry width="80" height="33" as="geometry">
            <mxRectangle width="80" height="33" as="alternateBounds" />
          </mxGeometry>
        </mxCell>
        <mxCell id="ZlgfjLk_ET3c-FULecp4-107" value="0.34" style="connectable=0;recursiveResize=0;strokeColor=inherit;fillColor=inherit;fontStyle=0;align=center;whiteSpace=wrap;html=1;fontSize=14;" vertex="1" parent="ZlgfjLk_ET3c-FULecp4-105">
          <mxGeometry x="80" width="68" height="33" as="geometry">
            <mxRectangle width="68" height="33" as="alternateBounds" />
          </mxGeometry>
        </mxCell>
        <mxCell id="ZlgfjLk_ET3c-FULecp4-108" value="4vCPUs, 8GB RAM" style="connectable=0;recursiveResize=0;strokeColor=inherit;fillColor=inherit;fontStyle=0;align=center;whiteSpace=wrap;html=1;fontSize=14;" vertex="1" parent="ZlgfjLk_ET3c-FULecp4-105">
          <mxGeometry x="148" width="150" height="33" as="geometry">
            <mxRectangle width="150" height="33" as="alternateBounds" />
          </mxGeometry>
        </mxCell>
        <mxCell id="ZlgfjLk_ET3c-FULecp4-109" value="" style="shape=tableRow;horizontal=0;startSize=0;swimlaneHead=0;swimlaneBody=0;top=0;left=0;bottom=0;right=0;dropTarget=0;collapsible=0;recursiveResize=0;expand=0;fontStyle=1;strokeColor=inherit;fillColor=#EAF2D3;fontSize=14;" vertex="1" parent="ZlgfjLk_ET3c-FULecp4-92">
          <mxGeometry y="129" width="298" height="31" as="geometry" />
        </mxCell>
        <mxCell id="ZlgfjLk_ET3c-FULecp4-110" value="model-w&lt;sub style=&quot;font-size: 14px;&quot;&gt;3,1&lt;/sub&gt;" style="connectable=0;recursiveResize=0;strokeColor=inherit;fillColor=inherit;whiteSpace=wrap;html=1;fontSize=14;" vertex="1" parent="ZlgfjLk_ET3c-FULecp4-109">
          <mxGeometry width="80" height="31" as="geometry">
            <mxRectangle width="80" height="31" as="alternateBounds" />
          </mxGeometry>
        </mxCell>
        <mxCell id="ZlgfjLk_ET3c-FULecp4-111" value="&lt;b style=&quot;font-size: 14px;&quot;&gt;0.96&lt;/b&gt;" style="connectable=0;recursiveResize=0;strokeColor=inherit;fillColor=inherit;whiteSpace=wrap;html=1;fontSize=14;" vertex="1" parent="ZlgfjLk_ET3c-FULecp4-109">
          <mxGeometry x="80" width="68" height="31" as="geometry">
            <mxRectangle width="68" height="31" as="alternateBounds" />
          </mxGeometry>
        </mxCell>
        <mxCell id="ZlgfjLk_ET3c-FULecp4-112" value="4vCPUs, 8GB RAM" style="connectable=0;recursiveResize=0;strokeColor=inherit;fillColor=inherit;whiteSpace=wrap;html=1;fontSize=14;" vertex="1" parent="ZlgfjLk_ET3c-FULecp4-109">
          <mxGeometry x="148" width="150" height="31" as="geometry">
            <mxRectangle width="150" height="31" as="alternateBounds" />
          </mxGeometry>
        </mxCell>
        <mxCell id="ZlgfjLk_ET3c-FULecp4-135" value="" style="shape=tableRow;horizontal=0;startSize=0;swimlaneHead=0;swimlaneBody=0;top=0;left=0;bottom=0;right=0;dropTarget=0;collapsible=0;recursiveResize=0;expand=0;fontStyle=0;strokeColor=#98bf21;fillColor=#ffffff;fontSize=14;" vertex="1" parent="1">
          <mxGeometry x="1002" y="1799.5" width="298" height="20.5" as="geometry" />
        </mxCell>
        <mxCell id="ZlgfjLk_ET3c-FULecp4-136" value="..." style="connectable=0;recursiveResize=0;strokeColor=inherit;fillColor=inherit;align=center;whiteSpace=wrap;html=1;fontSize=14;" vertex="1" parent="ZlgfjLk_ET3c-FULecp4-135">
          <mxGeometry width="80" height="20" as="geometry">
            <mxRectangle width="80" height="32" as="alternateBounds" />
          </mxGeometry>
        </mxCell>
        <mxCell id="ZlgfjLk_ET3c-FULecp4-137" value="..." style="connectable=0;recursiveResize=0;strokeColor=inherit;fillColor=inherit;align=center;whiteSpace=wrap;html=1;fontSize=14;" vertex="1" parent="ZlgfjLk_ET3c-FULecp4-135">
          <mxGeometry x="80" width="70" height="20" as="geometry">
            <mxRectangle width="107" height="32" as="alternateBounds" />
          </mxGeometry>
        </mxCell>
        <mxCell id="ZlgfjLk_ET3c-FULecp4-138" value="..." style="connectable=0;recursiveResize=0;strokeColor=inherit;fillColor=inherit;align=center;whiteSpace=wrap;html=1;fontSize=14;rotation=0;" vertex="1" parent="ZlgfjLk_ET3c-FULecp4-135">
          <mxGeometry x="148" width="150" height="20" as="geometry">
            <mxRectangle width="123" height="32" as="alternateBounds" />
          </mxGeometry>
        </mxCell>
        <mxCell id="ZlgfjLk_ET3c-FULecp4-150" value="" style="group" vertex="1" connectable="0" parent="1">
          <mxGeometry x="940" y="1640" width="62" height="191.5" as="geometry" />
        </mxCell>
        <mxCell id="ZlgfjLk_ET3c-FULecp4-139" value="Workload" style="connectable=0;recursiveResize=0;strokeColor=#98bf21;fillColor=#60a917;align=center;fontStyle=1;fontColor=#FFFFFF;html=1;" vertex="1" parent="ZlgfjLk_ET3c-FULecp4-150">
          <mxGeometry width="62" height="33" as="geometry">
            <mxRectangle width="80" height="33" as="alternateBounds" />
          </mxGeometry>
        </mxCell>
        <mxCell id="ZlgfjLk_ET3c-FULecp4-140" value="w&lt;sub style=&quot;font-size: 14px;&quot;&gt;1&lt;/sub&gt;" style="connectable=0;recursiveResize=0;strokeColor=#98bf21;fillColor=inherit;align=center;whiteSpace=wrap;html=1;fontSize=14;" vertex="1" parent="ZlgfjLk_ET3c-FULecp4-150">
          <mxGeometry y="33" width="62" height="32" as="geometry">
            <mxRectangle width="80" height="32" as="alternateBounds" />
          </mxGeometry>
        </mxCell>
        <mxCell id="ZlgfjLk_ET3c-FULecp4-141" value="w&lt;sub style=&quot;font-size: 14px;&quot;&gt;1&lt;/sub&gt;" style="connectable=0;recursiveResize=0;strokeColor=#98bf21;fillColor=#eaf2d3;whiteSpace=wrap;html=1;fontColor=#000000;fontSize=14;" vertex="1" parent="ZlgfjLk_ET3c-FULecp4-150">
          <mxGeometry y="65" width="62" height="31" as="geometry">
            <mxRectangle width="80" height="31" as="alternateBounds" />
          </mxGeometry>
        </mxCell>
        <mxCell id="ZlgfjLk_ET3c-FULecp4-142" value="w&lt;sub style=&quot;font-size: 14px;&quot;&gt;2&lt;/sub&gt;" style="connectable=0;recursiveResize=0;strokeColor=#98bf21;fillColor=inherit;fontStyle=0;align=center;whiteSpace=wrap;html=1;fontSize=14;" vertex="1" parent="ZlgfjLk_ET3c-FULecp4-150">
          <mxGeometry y="96" width="62" height="33" as="geometry">
            <mxRectangle width="80" height="33" as="alternateBounds" />
          </mxGeometry>
        </mxCell>
        <mxCell id="ZlgfjLk_ET3c-FULecp4-143" value="w&lt;sub style=&quot;font-size: 14px;&quot;&gt;3&lt;/sub&gt;" style="connectable=0;recursiveResize=0;strokeColor=#98bf21;fillColor=#eaf2d3;whiteSpace=wrap;html=1;align=center;verticalAlign=middle;fontFamily=Helvetica;fontSize=14;fontColor=#000000;rotation=0;" vertex="1" parent="ZlgfjLk_ET3c-FULecp4-150">
          <mxGeometry y="129" width="62" height="30" as="geometry">
            <mxRectangle width="80" height="31" as="alternateBounds" />
          </mxGeometry>
        </mxCell>
        <mxCell id="ZlgfjLk_ET3c-FULecp4-144" value="..." style="connectable=0;recursiveResize=0;strokeColor=#98bf21;fillColor=inherit;align=center;whiteSpace=wrap;html=1;fontSize=14;rotation=0;" vertex="1" parent="ZlgfjLk_ET3c-FULecp4-150">
          <mxGeometry y="159.5" width="62" height="20" as="geometry">
            <mxRectangle width="80" height="32" as="alternateBounds" />
          </mxGeometry>
        </mxCell>
        <mxCell id="ZlgfjLk_ET3c-FULecp4-151" value="" style="html=1;shadow=0;dashed=0;align=center;verticalAlign=middle;shape=mxgraph.arrows2.twoWayArrow;dy=0.65;dx=22;fillColor=#97D077;strokeColor=#2D7600;fontColor=#ffffff;" vertex="1" parent="1">
          <mxGeometry x="871" y="1712.88" width="60" height="24.25" as="geometry" />
        </mxCell>
        <mxCell id="ZlgfjLk_ET3c-FULecp4-155" value="" style="sketch=0;outlineConnect=0;fontColor=#232F3E;gradientColor=none;fillColor=#2d7600;strokeColor=#FFFFFF;dashed=0;verticalLabelPosition=bottom;verticalAlign=top;align=center;html=1;fontSize=12;fontStyle=0;aspect=fixed;pointerEvents=1;shape=mxgraph.aws4.sagemaker_model;" vertex="1" parent="1">
          <mxGeometry x="881" y="1602" width="50" height="50" as="geometry" />
        </mxCell>
        <mxCell id="ZlgfjLk_ET3c-FULecp4-156" value="" style="endArrow=none;html=1;rounded=0;exitX=0.145;exitY=-0.009;exitDx=0;exitDy=0;exitPerimeter=0;strokeColor=#FCAB0B;strokeWidth=3;dashed=1;startArrow=classic;startFill=1;endFill=0;" edge="1" parent="1" source="ZlgfjLk_ET3c-FULecp4-93" target="ZlgfjLk_ET3c-FULecp4-155">
          <mxGeometry width="50" height="50" relative="1" as="geometry">
            <mxPoint x="606" y="1637" as="sourcePoint" />
            <mxPoint x="891" y="1639" as="targetPoint" />
          </mxGeometry>
        </mxCell>
      </root>
    </mxGraphModel>
  </diagram>
</mxfile>
